<svg width="290" height="290" viewBox="0 0 290 290" fill="none" xmlns="http://www.w3.org/2000/svg">
<circle cx="145" cy="145" r="143" fill="white" stroke="#4B1410" stroke-width="4"/>
<circle cx="145" cy="145" r="143" fill="white" stroke="#4B1410" stroke-width="4"/>
<path d="M211 270.5C149.5 311.5 76 270.5 76 270.5H211Z" fill="#4B1410" stroke="#4B1410"/>
<path d="M211 270.5C149.5 311.5 76 270.5 76 270.5H211Z" fill="#4B1410" stroke="#4B1410"/>
<path d="M222 121C227.523 121 232 116.523 232 111C232 105.477 227.523 101 222 101C216.477 101 212 105.477 212 111C212 116.523 216.477 121 222 121Z" fill="#FFD600"/>
<path d="M222 121C227.523 121 232 116.523 232 111C232 105.477 227.523 101 222 101C216.477 101 212 105.477 212 111C212 116.523 216.477 121 222 121Z" fill="#FFD600"/>
<path d="M232 111H212V138H232V111Z" fill="#FFD600"/>
<path d="M232 111H212V138H232V111Z" fill="#FFD600"/>
<path d="M76 81C76 44.5492 105.549 15 142 15C178.451 15 208 44.5492 208 81V165H76V81Z" fill="#FFD600"/>
<path d="M76 81C76 44.5492 105.549 15 142 15C178.451 15 208 44.5492 208 81V165H76V81Z" fill="#FFD600"/>
<path d="M142 118C145.314 118 148 115.314 148 112C148 108.686 145.314 106 142 106C138.686 106 136 108.686 136 112C136 115.314 138.686 118 142 118Z" fill="#351717"/>
<path d="M142 118C145.314 118 148 115.314 148 112C148 108.686 145.314 106 142 106C138.686 106 136 108.686 136 112C136 115.314 138.686 118 142 118Z" fill="#351717"/>
<path fill-rule="evenodd" clip-rule="evenodd" d="M120.929 57C120.976 56.6734 121 56.3395 121 56C121 52.134 117.866 49 114 49C110.134 49 107 52.134 107 56C107 56.3395 107.024 56.6734 107.071 57H105C101.134 57 98 60.134 98 64C98 67.866 101.134 71 105 71H123C126.866 71 130 67.866 130 64C130 60.134 126.866 57 123 57H120.929Z" fill="#FFF6DC"/>
<path fill-rule="evenodd" clip-rule="evenodd" d="M120.929 57C120.976 56.6734 121 56.3395 121 56C121 52.134 117.866 49 114 49C110.134 49 107 52.134 107 56C107 56.3395 107.024 56.6734 107.071 57H105C101.134 57 98 60.134 98 64C98 67.866 101.134 71 105 71H123C126.866 71 130 67.866 130 64C130 60.134 126.866 57 123 57H120.929Z" fill="#FFF6DC"/>
<path fill-rule="evenodd" clip-rule="evenodd" d="M177.929 57C177.976 56.6734 178 56.3395 178 56C178 52.134 174.866 49 171 49C167.134 49 164 52.134 164 56C164 56.3395 164.024 56.6734 164.071 57H162C158.134 57 155 60.134 155 64C155 67.866 158.134 71 162 71H180C183.866 71 187 67.866 187 64C187 60.134 183.866 57 180 57H177.929Z" fill="#FFF6DC"/>
<path fill-rule="evenodd" clip-rule="evenodd" d="M177.929 57C177.976 56.6734 178 56.3395 178 56C178 52.134 174.866 49 171 49C167.134 49 164 52.134 164 56C164 56.3395 164.024 56.6734 164.071 57H162C158.134 57 155 60.134 155 64C155 67.866 158.134 71 162 71H180C183.866 71 187 67.866 187 64C187 60.134 183.866 57 180 57H177.929Z" fill="#FFF6DC"/>
<path d="M69 261.073C69 255.38 74.2452 251.11 79.8378 252.175C95.2862 255.117 124.081 260 145 260C165.919 260 194.714 255.117 210.162 252.175C215.755 251.11 221 255.38 221 261.073C221 266.003 217.003 270 212.073 270H77.9271C72.9968 270 69 266.003 69 261.073Z" fill="#4B1410"/>
<path d="M69 261.073C69 255.38 74.2452 251.11 79.8378 252.175C95.2862 255.117 124.081 260 145 260C165.919 260 194.714 255.117 210.162 252.175C215.755 251.11 221 255.38 221 261.073C221 266.003 217.003 270 212.073 270H77.9271C72.9968 270 69 266.003 69 261.073Z" fill="#4B1410"/>
<path d="M166.611 117.341C176.747 120.057 187.166 114.042 189.882 103.906C192.597 93.77 186.582 83.3516 176.447 80.6357C166.311 77.9198 155.892 83.9349 153.176 94.0707C150.461 104.207 156.476 114.625 166.611 117.341Z" stroke="#4B1410" stroke-width="6"/>
<path d="M166.611 117.341C176.747 120.057 187.166 114.042 189.882 103.906C192.597 93.77 186.582 83.3516 176.447 80.6357C166.311 77.9198 155.892 83.9349 153.176 94.0707C150.461 104.207 156.476 114.625 166.611 117.341Z" stroke="#4B1410" stroke-width="6"/>
<path d="M220.6 109.032L193.554 101.785C191.953 101.356 190.308 102.305 189.88 103.906C189.451 105.506 190.4 107.151 192.001 107.58L219.047 114.827C220.647 115.256 222.292 114.306 222.721 112.706C223.15 111.105 222.2 109.46 220.6 109.032Z" fill="#4B1410"/>
<path d="M220.6 109.032L193.554 101.785C191.953 101.356 190.308 102.305 189.88 103.906C189.451 105.506 190.4 107.151 192.001 107.58L219.047 114.827C220.647 115.256 222.292 114.306 222.721 112.706C223.15 111.105 222.2 109.46 220.6 109.032Z" fill="#4B1410"/>
<path d="M182.569 104.406C183.752 102.359 184.285 99.9976 184.101 97.622C183.918 95.2463 183.027 92.9624 181.54 91.0593C180.053 89.1562 178.038 87.7192 175.749 86.9301C173.459 86.141 170.999 86.0352 168.679 86.6261" stroke="#FFF6DC" stroke-width="2" stroke-linecap="round"/>
<path d="M182.569 104.406C183.752 102.359 184.285 99.9976 184.101 97.622C183.918 95.2463 183.027 92.9624 181.54 91.0593C180.053 89.1562 178.038 87.7192 175.749 86.9301C173.459 86.141 170.999 86.0352 168.679 86.6261" stroke="#FFF6DC" stroke-width="2" stroke-linecap="round"/>
<path d="M109.821 91.0801C107.534 92.4342 106 94.9269 106 97.7778V102.222C106 106.518 109.482 110 113.778 110C113.916 110 114.053 109.996 114.19 109.989C114.316 109.306 114.415 108.614 114.477 107.921C114.743 104.965 114.321 102.188 112.643 100.151C110.481 97.5251 109.845 94.418 109.82 91.5373C109.819 91.3845 109.819 91.2321 109.821 91.0801Z" fill="#351717"/>
<path d="M109.821 91.0801C107.534 92.4342 106 94.9269 106 97.7778V102.222C106 106.518 109.482 110 113.778 110C113.916 110 114.053 109.996 114.19 109.989C114.316 109.306 114.415 108.614 114.477 107.921C114.743 104.965 114.321 102.188 112.643 100.151C110.481 97.5251 109.845 94.418 109.82 91.5373C109.819 91.3845 109.819 91.2321 109.821 91.0801Z" fill="#351717"/>
<path d="M116.524 109.501C119.464 108.391 121.556 105.551 121.556 102.222V97.7778C121.556 93.4822 118.073 90 113.778 90C113.193 90 112.624 90.0645 112.076 90.1867C112.051 90.6268 112.038 91.0714 112.042 91.5184C112.064 94.1006 112.632 96.6417 114.358 98.7382C116.569 101.423 116.98 104.897 116.69 108.12C116.649 108.583 116.592 109.044 116.524 109.501Z" fill="#351717"/>
<path d="M116.524 109.501C119.464 108.391 121.556 105.551 121.556 102.222V97.7778C121.556 93.4822 118.073 90 113.778 90C113.193 90 112.624 90.0645 112.076 90.1867C112.051 90.6268 112.038 91.0714 112.042 91.5184C112.064 94.1006 112.632 96.6417 114.358 98.7382C116.569 101.423 116.98 104.897 116.69 108.12C116.649 108.583 116.592 109.044 116.524 109.501Z" fill="#351717"/>
<path d="M166.821 91.0801C164.534 92.4342 163 94.9269 163 97.7778V102.222C163 106.518 166.482 110 170.778 110C170.916 110 171.053 109.996 171.19 109.989C171.316 109.306 171.415 108.614 171.477 107.921C171.743 104.965 171.321 102.188 169.643 100.151C167.481 97.5251 166.845 94.418 166.82 91.5373C166.819 91.3845 166.819 91.2321 166.821 91.0801Z" fill="#351717"/>
<path d="M166.821 91.0801C164.534 92.4342 163 94.9269 163 97.7778V102.222C163 106.518 166.482 110 170.778 110C170.916 110 171.053 109.996 171.19 109.989C171.316 109.306 171.415 108.614 171.477 107.921C171.743 104.965 171.321 102.188 169.643 100.151C167.481 97.5251 166.845 94.418 166.82 91.5373C166.819 91.3845 166.819 91.2321 166.821 91.0801Z" fill="#351717"/>
<path d="M173.524 109.501C176.464 108.391 178.556 105.551 178.556 102.222V97.7778C178.556 93.4822 175.073 90 170.778 90C170.193 90 169.624 90.0645 169.076 90.1867C169.051 90.6268 169.039 91.0714 169.042 91.5184C169.064 94.1006 169.632 96.6417 171.358 98.7382C173.569 101.423 173.98 104.897 173.69 108.12C173.649 108.583 173.592 109.044 173.524 109.501Z" fill="#351717"/>
<path d="M173.524 109.501C176.464 108.391 178.556 105.551 178.556 102.222V97.7778C178.556 93.4822 175.073 90 170.778 90C170.193 90 169.624 90.0645 169.076 90.1867C169.051 90.6268 169.039 91.0714 169.042 91.5184C169.064 94.1006 169.632 96.6417 171.358 98.7382C173.569 101.423 173.98 104.897 173.69 108.12C173.649 108.583 173.592 109.044 173.524 109.501Z" fill="#351717"/>
<path fill-rule="evenodd" clip-rule="evenodd" d="M72.4837 127.622C60.1945 125.887 49 135.353 49 147.764V174C49 218.183 84.8172 254 129 254H161C205.183 254 241 218.183 241 174V147.764C241 135.353 229.805 125.887 217.516 127.622C197.237 130.484 167.707 134 145 134C122.293 134 92.7628 130.484 72.4837 127.622ZM101.863 193.566H96.0234C95.9453 194.712 95.6914 195.669 95.2617 196.437C94.8451 197.206 94.2396 197.785 93.4453 198.176C92.651 198.566 91.6419 198.762 90.418 198.762C89.3763 198.762 88.4844 198.573 87.7422 198.195C87.013 197.805 86.4141 197.232 85.9453 196.477C85.4896 195.708 85.151 194.771 84.9297 193.664C84.7083 192.544 84.5977 191.249 84.5977 189.777V187.766C84.5977 186.255 84.7148 184.94 84.9492 183.82C85.1966 182.687 85.5677 181.75 86.0625 181.008C86.5573 180.266 87.1693 179.712 87.8984 179.348C88.6276 178.983 89.4805 178.801 90.457 178.801C91.7591 178.801 92.8008 179.009 93.582 179.426C94.3763 179.829 94.9688 180.435 95.3594 181.242C95.75 182.036 95.9779 183.006 96.043 184.152H101.902C101.72 182.225 101.173 180.506 100.262 178.996C99.3633 177.486 98.0938 176.301 96.4531 175.441C94.8255 174.582 92.8268 174.152 90.457 174.152C88.6732 174.152 87.0586 174.471 85.6133 175.109C84.168 175.747 82.9245 176.659 81.8828 177.844C80.8542 179.029 80.0599 180.467 79.5 182.16C78.9531 183.84 78.6797 185.721 78.6797 187.805V189.777C78.6797 191.861 78.9466 193.742 79.4805 195.422C80.0143 197.102 80.7891 198.534 81.8047 199.719C82.8333 200.904 84.0703 201.815 85.5156 202.453C86.9609 203.078 88.5951 203.391 90.418 203.391C92.7487 203.391 94.7409 202.974 96.3945 202.141C98.0612 201.307 99.3568 200.148 100.281 198.664C101.219 197.18 101.746 195.48 101.863 193.566ZM117.84 174.562H119.324L129.949 203H123.699L121.727 197.004H111.506L109.539 203H103.309L113.875 174.562H115.32H117.84ZM113.012 192.414H120.217L116.61 181.447L113.012 192.414ZM138.445 179.152V186.711H149.773V191.281H138.445V203H132.586V174.562H136.844H138.445H151.141V179.152H138.445ZM173.621 203V198.43H160.398V190.598H171.648V186.145H160.398V179.152H173.602V174.562H160.398H158.484H154.539V203H158.484H160.398H173.621ZM176.961 200.285C176.961 199.452 177.247 198.755 177.82 198.195C178.406 197.635 179.181 197.355 180.145 197.355C181.108 197.355 181.876 197.635 182.449 198.195C183.035 198.755 183.328 199.452 183.328 200.285C183.328 201.118 183.035 201.815 182.449 202.375C181.876 202.935 181.108 203.215 180.145 203.215C179.181 203.215 178.406 202.935 177.82 202.375C177.247 201.815 176.961 201.118 176.961 200.285ZM210.965 193.566H205.125C205.047 194.712 204.793 195.669 204.363 196.437C203.947 197.206 203.341 197.785 202.547 198.176C201.753 198.566 200.743 198.762 199.52 198.762C198.478 198.762 197.586 198.573 196.844 198.195C196.115 197.805 195.516 197.232 195.047 196.477C194.591 195.708 194.253 194.771 194.031 193.664C193.81 192.544 193.699 191.249 193.699 189.777V187.766C193.699 186.255 193.816 184.94 194.051 183.82C194.298 182.687 194.669 181.75 195.164 181.008C195.659 180.266 196.271 179.712 197 179.348C197.729 178.983 198.582 178.801 199.559 178.801C200.861 178.801 201.902 179.009 202.684 179.426C203.478 179.829 204.07 180.435 204.461 181.242C204.852 182.036 205.079 183.006 205.145 184.152H211.004C210.822 182.225 210.275 180.506 209.363 178.996C208.465 177.486 207.195 176.301 205.555 175.441C203.927 174.582 201.928 174.152 199.559 174.152C197.775 174.152 196.16 174.471 194.715 175.109C193.27 175.747 192.026 176.659 190.984 177.844C189.956 179.029 189.161 180.467 188.602 182.16C188.055 183.84 187.781 185.721 187.781 187.805V189.777C187.781 191.861 188.048 193.742 188.582 195.422C189.116 197.102 189.891 198.534 190.906 199.719C191.935 200.904 193.172 201.815 194.617 202.453C196.062 203.078 197.697 203.391 199.52 203.391C201.85 203.391 203.842 202.974 205.496 202.141C207.163 201.307 208.458 200.148 209.383 198.664C210.32 197.18 210.848 195.48 210.965 193.566Z" fill="#4B1410"/>
<path fill-rule="evenodd" clip-rule="evenodd" d="M72.4837 127.622C60.1945 125.887 49 135.353 49 147.764V174C49 218.183 84.8172 254 129 254H161C205.183 254 241 218.183 241 174V147.764C241 135.353 229.805 125.887 217.516 127.622C197.237 130.484 167.707 134 145 134C122.293 134 92.7628 130.484 72.4837 127.622ZM101.863 193.566H96.0234C95.9453 194.712 95.6914 195.669 95.2617 196.437C94.8451 197.206 94.2396 197.785 93.4453 198.176C92.651 198.566 91.6419 198.762 90.418 198.762C89.3763 198.762 88.4844 198.573 87.7422 198.195C87.013 197.805 86.4141 197.232 85.9453 196.477C85.4896 195.708 85.151 194.771 84.9297 193.664C84.7083 192.544 84.5977 191.249 84.5977 189.777V187.766C84.5977 186.255 84.7148 184.94 84.9492 183.82C85.1966 182.687 85.5677 181.75 86.0625 181.008C86.5573 180.266 87.1693 179.712 87.8984 179.348C88.6276 178.983 89.4805 178.801 90.457 178.801C91.7591 178.801 92.8008 179.009 93.582 179.426C94.3763 179.829 94.9688 180.435 95.3594 181.242C95.75 182.036 95.9779 183.006 96.043 184.152H101.902C101.72 182.225 101.173 180.506 100.262 178.996C99.3633 177.486 98.0938 176.301 96.4531 175.441C94.8255 174.582 92.8268 174.152 90.457 174.152C88.6732 174.152 87.0586 174.471 85.6133 175.109C84.168 175.747 82.9245 176.659 81.8828 177.844C80.8542 179.029 80.0599 180.467 79.5 182.16C78.9531 183.84 78.6797 185.721 78.6797 187.805V189.777C78.6797 191.861 78.9466 193.742 79.4805 195.422C80.0143 197.102 80.7891 198.534 81.8047 199.719C82.8333 200.904 84.0703 201.815 85.5156 202.453C86.9609 203.078 88.5951 203.391 90.418 203.391C92.7487 203.391 94.7409 202.974 96.3945 202.141C98.0612 201.307 99.3568 200.148 100.281 198.664C101.219 197.18 101.746 195.48 101.863 193.566ZM117.84 174.562H119.324L129.949 203H123.699L121.727 197.004H111.506L109.539 203H103.309L113.875 174.562H115.32H117.84ZM113.012 192.414H120.217L116.61 181.447L113.012 192.414ZM138.445 179.152V186.711H149.773V191.281H138.445V203H132.586V174.562H136.844H138.445H151.141V179.152H138.445ZM173.621 203V198.43H160.398V190.598H171.648V186.145H160.398V179.152H173.602V174.562H160.398H158.484H154.539V203H158.484H160.398H173.621ZM176.961 200.285C176.961 199.452 177.247 198.755 177.82 198.195C178.406 197.635 179.181 197.355 180.145 197.355C181.108 197.355 181.876 197.635 182.449 198.195C183.035 198.755 183.328 199.452 183.328 200.285C183.328 201.118 183.035 201.815 182.449 202.375C181.876 202.935 181.108 203.215 180.145 203.215C179.181 203.215 178.406 202.935 177.82 202.375C177.247 201.815 176.961 201.118 176.961 200.285ZM210.965 193.566H205.125C205.047 194.712 204.793 195.669 204.363 196.437C203.947 197.206 203.341 197.785 202.547 198.176C201.753 198.566 200.743 198.762 199.52 198.762C198.478 198.762 197.586 198.573 196.844 198.195C196.115 197.805 195.516 197.232 195.047 196.477C194.591 195.708 194.253 194.771 194.031 193.664C193.81 192.544 193.699 191.249 193.699 189.777V187.766C193.699 186.255 193.816 184.94 194.051 183.82C194.298 182.687 194.669 181.75 195.164 181.008C195.659 180.266 196.271 179.712 197 179.348C197.729 178.983 198.582 178.801 199.559 178.801C200.861 178.801 201.902 179.009 202.684 179.426C203.478 179.829 204.07 180.435 204.461 181.242C204.852 182.036 205.079 183.006 205.145 184.152H211.004C210.822 182.225 210.275 180.506 209.363 178.996C208.465 177.486 207.195 176.301 205.555 175.441C203.927 174.582 201.928 174.152 199.559 174.152C197.775 174.152 196.16 174.471 194.715 175.109C193.27 175.747 192.026 176.659 190.984 177.844C189.956 179.029 189.161 180.467 188.602 182.16C188.055 183.84 187.781 185.721 187.781 187.805V189.777C187.781 191.861 188.048 193.742 188.582 195.422C189.116 197.102 189.891 198.534 190.906 199.719C191.935 200.904 193.172 201.815 194.617 202.453C196.062 203.078 197.697 203.391 199.52 203.391C201.85 203.391 203.842 202.974 205.496 202.141C207.163 201.307 208.458 200.148 209.383 198.664C210.32 197.18 210.848 195.48 210.965 193.566Z" fill="#4B1410"/>
<path d="M221 261.5C221 264.849 219.034 268.165 215.215 271.258C211.395 274.352 205.797 277.163 198.74 279.531C191.683 281.899 183.305 283.777 174.084 285.059C164.863 286.34 154.98 287 145 287C135.019 287 125.137 286.34 115.916 285.059C106.695 283.777 98.317 281.899 91.2598 279.531C84.2025 277.163 78.6044 274.352 74.7851 271.258C70.9657 268.165 69 264.849 69 261.5L145 261.5H221Z" fill="#4B1410"/>
</svg>
